<?xml version="1.0" encoding="UTF-8"?>
<svg id="_レイヤー_1" data-name="レイヤー 1" xmlns="http://www.w3.org/2000/svg" viewBox="0 0 512 512">
  <defs>
    <style>
      .cls-1 {
        fill: none;
      }

      .cls-2 {
        fill: #ffff8a;
      }

      .cls-3 {
        fill: #8df7ff;
      }
    </style>
  </defs>
  <text/>
  <rect class="cls-1" x="1.8" y="1.8" width="508.39" height="508.39"/>
  <g>
    <polygon class="cls-3" points="406.23 306.84 385.04 433.94 126.96 433.94 105.78 306.84 406.23 306.84"/>
    <path d="M431.17,285.92c2.41,2.85,3.45,6.61,2.83,10.3l-25.41,152.51c-1.02,6.13-6.33,10.63-12.54,10.63H116.43c-6.21,0-11.51-4.5-12.53-10.63l-25.42-152.51c-.12-.7-.17-1.4-.17-2.1,0-7.02,5.69-12.7,12.71-12.7h13.3c3-46.2,22.51-69.25,48.12-85.01l-33.71-92.6c-7.16-19.75,3.02-41.57,22.76-48.79,19.77-7.23,41.66,2.94,48.89,22.72l31.28,85.91c44.51-21.06,79.55-57.99,98.25-103.55.56-1.23,1.31-2.36,2.22-3.35,4.75-5.16,12.79-5.5,17.95-.75,58.58,59.18,81.98,144.66,61.72,225.42h19.67c3.74,0,7.28,1.64,9.7,4.5ZM385.04,433.94l21.19-127.1H105.78l21.18,127.1h258.08ZM375.19,281.42c18.53-67.36,3.33-139.52-40.81-193.68-38.52,72.26-90.07,94.43-132.08,112.49-40.91,17.59-68.9,29.71-72.74,81.19h245.63ZM198.25,174.3l-31.98-87.87c-2.41-6.59-9.69-9.99-16.29-7.59-6.6,2.39-10,9.69-7.61,16.29l32.54,89.38c5.69-2.61,11.5-5.11,17.35-7.63,1.98-.85,3.99-1.72,5.99-2.58Z"/>
    <path class="cls-2" d="M334.38,87.74c44.14,54.16,59.34,126.32,40.81,193.68h-245.63c3.84-51.48,31.83-63.6,72.74-81.19,42.01-18.06,93.56-40.23,132.08-112.49Z"/>
    <path class="cls-3" d="M166.27,86.43l31.98,87.87c-2,.86-4.01,1.73-5.99,2.58-5.85,2.52-11.66,5.02-17.35,7.63l-32.54-89.38c-2.39-6.6,1.01-13.9,7.61-16.29,6.6-2.4,13.88,1,16.29,7.59Z"/>
  </g>
</svg>